<svg width="15" height="15" viewBox="0 0 15 15" fill="none" xmlns="http://www.w3.org/2000/svg">
<path fill-rule="evenodd" clip-rule="evenodd" d="M13.0754 3.52952C13.273 3.52967 13.4679 3.57564 13.6454 3.66392C13.823 3.7522 13.9784 3.88048 14.0999 4.03902C14.2214 4.19756 14.3059 4.38219 14.3468 4.5789C14.3877 4.7756 14.3841 4.97922 14.3361 5.17427L13.3347 9.25175C13.2408 9.63331 13.0244 9.97205 12.7198 10.2142C12.4152 10.4564 12.0399 10.5881 11.6534 10.5886H6.451C6.08704 10.5885 5.73233 10.4718 5.43713 10.2552C5.14192 10.0385 4.92118 9.73287 4.80617 9.38146L2.79803 3.25069C2.74094 3.07498 2.63085 2.92207 2.48343 2.81371C2.33601 2.70535 2.15877 2.64706 1.97692 2.64714H0.867069C0.637108 2.64714 0.416566 2.55417 0.253959 2.3887C0.0913517 2.22322 0 1.99878 0 1.76476V0.882379C0 0.648358 0.0913517 0.423921 0.253959 0.258443C0.416566 0.0929647 0.637108 0 0.867069 0L3.39891 0C3.67177 0.000210836 3.93765 0.0877476 4.15893 0.250221C4.3802 0.412694 4.54566 0.641873 4.63188 0.905321L5.29346 2.92597C5.35103 3.10189 5.4616 3.25488 5.60947 3.36322C5.75733 3.47156 5.93497 3.52975 6.11717 3.52952H13.0745H13.0754ZM11.4887 11.9121C11.6909 11.9071 11.8921 11.9434 12.0804 12.0187C12.2687 12.094 12.4403 12.2069 12.5851 12.3507C12.7299 12.4945 12.845 12.6663 12.9236 12.856C13.0022 13.0457 13.0427 13.2495 13.0427 13.4554C13.0428 13.6613 13.0024 13.8651 12.9239 14.0549C12.8454 14.2446 12.7304 14.4165 12.5857 14.5604C12.441 14.7043 12.2695 14.8172 12.0812 14.8927C11.893 14.9681 11.6918 15.0044 11.4895 14.9996C11.0935 14.99 10.7168 14.8233 10.44 14.5349C10.1631 14.2465 10.0081 13.8594 10.008 13.4563C10.0079 13.0531 10.1627 12.6659 10.4394 12.3774C10.716 12.0889 11.0926 11.9219 11.4887 11.9121ZM5.85272 11.9121C6.05498 11.9071 6.25617 11.9434 6.44446 12.0187C6.63276 12.094 6.80435 12.2069 6.94915 12.3507C7.09395 12.4945 7.20903 12.6663 7.28762 12.856C7.36622 13.0457 7.40673 13.2495 7.40679 13.4554C7.40685 13.6613 7.36645 13.8651 7.28796 14.0549C7.20947 14.2446 7.09449 14.4165 6.94977 14.5604C6.80505 14.7043 6.63352 14.8172 6.44527 14.8927C6.25702 14.9681 6.05584 15.0044 5.85358 14.9996C5.45754 14.99 5.08087 14.8233 4.80403 14.5349C4.5272 14.2465 4.37216 13.8594 4.37205 13.4563C4.37193 13.0531 4.52675 12.6659 4.80343 12.3774C5.0801 12.0889 5.45668 11.9219 5.85272 11.9121Z" fill="#FFBC0D"/>
</svg>
