<svg width="13" height="14" viewBox="0 0 13 14" fill="none" xmlns="http://www.w3.org/2000/svg">
<path d="M3.14679 5.98115C3.14005 5.58357 3.21255 5.18863 3.36005 4.81936C3.50755 4.45009 3.7271 4.11389 4.0059 3.83037C4.2847 3.54685 4.61717 3.32167 4.98391 3.16799C5.35065 3.01431 5.74432 2.93519 6.14195 2.93524C6.53959 2.9353 6.93324 3.01454 7.29993 3.16833C7.66662 3.32212 7.99902 3.54739 8.27774 3.83099C8.55646 4.1146 8.77592 4.45086 8.92331 4.82018C9.0707 5.18949 9.14308 5.58445 9.13623 5.98203C9.12269 6.76741 8.80116 7.51604 8.24092 8.06663C7.68069 8.61721 6.92658 8.92567 6.14108 8.92556C5.35558 8.92545 4.60156 8.61676 4.04148 8.06601C3.48141 7.51527 3.1601 6.76654 3.14679 5.98115ZM2.2639 1.42673C1.60621 1.98524 1.07794 2.68019 0.715751 3.46333C0.353567 4.24648 0.166148 5.09906 0.166504 5.9619C0.166504 9.80757 2.71978 12.2707 4.2423 13.3969C4.79446 13.8013 5.46425 14.013 6.14854 13.9994C6.83283 13.9858 7.49368 13.7476 8.02934 13.3216C9.47486 12.1718 11.9249 9.7402 12.1086 6.36441C12.274 3.31762 10.0882 0.557843 7.13333 0.0809631C6.27264 -0.0617955 5.39119 -0.0153569 4.55026 0.217049C3.70934 0.449456 2.92913 0.862251 2.2639 1.42673Z" fill="#FFBC0D"/>
</svg>
