<svg width="80" height="80" viewBox="0 0 80 80" fill="none" xmlns="http://www.w3.org/2000/svg">
<path d="M38.7291 10.8V4.34402L41.2731 4.34402V10.8H43.4091V2.76002L36.5931 2.76002V10.8H38.7291Z" fill="white"/>
<path d="M47.5164 11.9455C49.3942 12.4486 50.8958 11.4347 51.3647 9.68445C51.8337 7.93419 51.0403 6.30533 49.1625 5.80219C47.2847 5.29904 45.7832 6.31295 45.3142 8.06321C44.8452 9.81347 45.6387 11.4423 47.5164 11.9455ZM47.8581 10.6705C47.2437 10.5058 47.0561 9.72258 47.3542 8.60983C47.6524 7.49709 48.2065 6.9126 48.8209 7.07721C49.4352 7.24182 49.6229 8.02508 49.3247 9.13783C49.0265 10.2506 48.4724 10.8351 47.8581 10.6705Z" fill="white"/>
<path d="M57.2546 17.7273L58.6166 15.3682L57.9515 14.9842L60.2555 10.9936L55.5582 8.28158L54.5202 10.0794C54.0282 10.9316 53.4574 11.7522 52.7969 12.0082L52.2669 11.7022L50.9049 14.0613L52.6092 15.0453L53.2512 13.9333L56.1922 15.6313L55.5502 16.7433L57.2546 17.7273ZM56.5009 10.4887L57.7688 11.2207L56.1848 13.9642L54.574 13.0342C55.0802 12.6614 55.6789 11.9124 56.1769 11.0498L56.5009 10.4887Z" fill="white"/>
<path d="M58.2774 20.5462L60.5685 18.2552C60.4072 18.9085 60.6364 19.5619 61.0861 20.0116C62.1382 21.0638 63.7674 20.8432 65.0911 19.5195C66.3809 18.2297 66.6864 16.6175 65.6342 15.5653C65.0402 14.9714 64.3359 14.8102 63.5383 15.0817L64.1832 14.335L62.8934 13.0452L56.8349 19.1037L58.2774 20.5462ZM61.6461 18.5691C61.2134 18.1364 61.3661 17.4236 62.1043 16.6854L62.257 16.5327C63.0037 15.786 63.7165 15.6332 64.1493 16.066C64.6159 16.5327 64.319 17.3048 63.5977 18.0261C62.8765 18.7473 62.1128 19.0358 61.6461 18.5691Z" fill="white"/>
<path d="M65.1525 25.4774C66.1245 27.1609 67.9032 27.5058 69.4724 26.5998C71.0417 25.6938 71.6324 23.9809 70.6604 22.2974C69.6884 20.6138 67.9097 20.269 66.3404 21.175C64.7712 22.081 64.1805 23.7938 65.1525 25.4774ZM66.2956 24.8174C65.9776 24.2666 66.3988 23.58 67.3964 23.004C68.3941 22.428 69.1992 22.4066 69.5172 22.9574C69.8352 23.5082 69.4141 24.1947 68.4164 24.7707C67.4188 25.3467 66.6136 25.3682 66.2956 24.8174Z" fill="white"/>
<path d="M70.6812 30.7416C71.5157 30.518 72.1059 30.8195 72.2767 31.457C72.4413 32.0714 72.0678 32.5317 71.1636 32.774C70.3639 32.9883 69.5429 32.9846 69.3193 32.1501C69.1268 31.4314 69.7191 30.9994 70.6812 30.7416ZM77.1492 32.9964C76.9194 32.8343 76.4815 31.2 76.2566 30.6391C75.655 29.1356 74.827 28.3636 73.2994 28.2263C72.5882 28.1684 71.5085 28.3583 70.6624 28.585C68.6803 29.1161 67.4387 30.2314 68.035 32.4569C68.5474 34.3695 70.0434 35.2234 71.8516 34.7389C73.4976 34.2978 74.058 33.0047 73.6698 31.5558C73.3778 30.4663 72.8965 30.061 72.0073 29.8024L71.998 29.7676C73.4672 29.5479 74.0418 29.7914 74.5962 31.2579C74.8033 31.7987 75.2418 33.2963 75.4422 33.4414L77.1492 32.9964Z" fill="white"/>
<path d="M69.2 43.2116H75.248V41.1716H72.98V39.2276H75.248V37.1876H69.2V39.2276H71.552V41.1716H69.2V43.2116Z" fill="white"/>
<path d="M67.982 47.7872C67.6124 49.1666 67.9873 50.41 69.2133 51.0739L69.7164 49.1961C69.2691 48.9645 69.0624 48.6233 69.1959 48.1249C69.3419 47.5801 69.8385 47.3032 70.9181 47.4931L69.8901 51.3298L70.2726 51.4323C72.1272 51.9292 73.647 51.2183 74.1377 49.3869C74.6036 47.6483 73.7234 46.1577 71.8456 45.6545C69.7708 45.0986 68.423 46.1413 67.982 47.7872ZM72.9206 49.0608C72.7715 49.6172 72.2009 49.7997 71.3508 49.6341L71.857 47.7447C72.6876 48.0294 73.0604 48.5392 72.9206 49.0608Z" fill="white"/>
<path d="M65.013 54.7642C64.299 56.0008 64.3394 57.2989 65.3517 58.2575L66.3237 56.574C65.9517 56.2344 65.8402 55.8514 66.0982 55.4045C66.3802 54.9161 66.9316 54.7772 67.9253 55.24L65.9393 58.6799L66.2822 58.8779C67.945 59.8379 69.597 59.5446 70.545 57.9026C71.445 56.3437 70.9806 54.6761 69.297 53.7041C67.4368 52.6301 65.865 53.2884 65.013 54.7642ZM69.4538 57.2726C69.1658 57.7714 68.5673 57.8 67.7891 57.42L68.7671 55.726C69.4957 56.216 69.7238 56.8049 69.4538 57.2726Z" fill="white"/>
<path d="M56.1052 67.8969L53.8758 67.2995L53.5288 68.5945L55.7582 69.1919L55.1608 71.4212L56.4558 71.7682L57.0532 69.5389L59.2825 70.1362L59.6295 68.8412L57.4002 68.2439L57.9975 66.0145L56.7025 65.6675L56.1052 67.8969Z" fill="#FFBC0D"/>
<path d="M41.2709 69.2V75.656H38.7269V69.2H36.5909V77.24H43.4069V69.2H41.2709Z" fill="white"/>
<path d="M32.4836 68.0546C30.6058 67.5514 29.1042 68.5653 28.6353 70.3156C28.1663 72.0658 28.9597 73.6947 30.8375 74.1978C32.7153 74.701 34.2168 73.6871 34.6858 71.9368C35.1548 70.1866 34.3613 68.5577 32.4836 68.0546ZM32.1419 69.3296C32.7563 69.4942 32.9439 70.2774 32.6458 71.3902C32.3476 72.5029 31.7935 73.0874 31.1791 72.9228C30.5648 72.7582 30.3771 71.975 30.6753 70.8622C30.9735 69.7495 31.5276 69.165 32.1419 69.3296Z" fill="white"/>
<path d="M22.7454 62.2727L21.3834 64.6317L22.0485 65.0157L19.7445 69.0064L24.4418 71.7184L25.4798 69.9205C25.9718 69.0683 26.5426 68.2478 27.2031 67.9917L27.7331 68.2977L29.0951 65.9387L27.3908 64.9547L26.7488 66.0666L23.8078 64.3686L24.4498 63.2567L22.7454 62.2727ZM23.4991 69.5113L22.2312 68.7793L23.8152 66.0357L25.426 66.9657C24.9198 67.3385 24.3211 68.0875 23.8231 68.9501L23.4991 69.5113Z" fill="white"/>
<path d="M21.7226 59.4537L19.4315 61.7448C19.5928 61.0914 19.3637 60.438 18.9139 59.9883C17.8618 58.9361 16.2326 59.1568 14.9089 60.4805C13.6191 61.7702 13.3136 63.3824 14.3658 64.4346C14.9598 65.0286 15.6641 65.1898 16.4617 64.9183L15.8168 65.665L17.1066 66.9547L23.1651 60.8962L21.7226 59.4537ZM18.3539 61.4308C18.7867 61.8636 18.6339 62.5763 17.8957 63.3145L17.743 63.4673C16.9963 64.214 16.2835 64.3667 15.8507 63.934C15.3841 63.4673 15.681 62.6951 16.4023 61.9739C17.1235 61.2526 17.8872 60.9641 18.3539 61.4308Z" fill="white"/>
<path d="M14.8475 54.5227C13.8755 52.8391 12.0968 52.4943 10.5276 53.4003C8.95834 54.3063 8.36762 56.0191 9.33962 57.7027C10.3116 59.3862 12.0903 59.7311 13.6596 58.8251C15.2288 57.9191 15.8195 56.2062 14.8475 54.5227ZM13.7044 55.1827C14.0224 55.7335 13.6012 56.42 12.6036 56.996C11.6059 57.572 10.8008 57.5935 10.4828 57.0427C10.1648 56.4919 10.5859 55.8053 11.5836 55.2293C12.5812 54.6533 13.3864 54.6319 13.7044 55.1827Z" fill="white"/>
<path d="M9.31881 49.2584C8.48425 49.482 7.8941 49.1805 7.72328 48.543C7.55867 47.9286 7.93224 47.4683 8.83635 47.226C9.63614 47.0117 10.4571 47.0154 10.6807 47.8499C10.8732 48.5686 10.2809 49.0006 9.31881 49.2584ZM2.85083 47.0036C3.08061 47.1657 3.51853 48.8 3.74337 49.3609C4.345 50.8644 5.17303 51.6364 6.70062 51.7737C7.41183 51.8316 8.49147 51.6417 9.33762 51.415C11.3197 50.8839 12.5613 49.7686 11.965 47.5431C11.4526 45.6305 9.95657 44.7766 8.14836 45.2611C6.50242 45.7022 5.94201 46.9953 6.33023 48.4442C6.62218 49.5337 7.10347 49.939 7.99271 50.1976L8.00203 50.2324C6.53284 50.4521 5.95822 50.2086 5.40378 48.7421C5.19674 48.2013 4.75821 46.7037 4.55783 46.5586L2.85083 47.0036Z" fill="white"/>
<path d="M10.8 36.7884H4.752V38.8284H7.02V40.7724H4.752V42.8124H10.8V40.7724H8.448V38.8284H10.8V36.7884Z" fill="white"/>
<path d="M12.018 32.2128C12.3876 30.8335 12.0127 29.5901 10.7867 28.9261L10.2836 30.8039C10.7309 31.0356 10.9376 31.3767 10.8041 31.8751C10.6581 32.4199 10.1615 32.6968 9.08185 32.5069L10.1099 28.6702L9.72738 28.5678C7.8728 28.0708 6.35303 28.7817 5.86231 30.6131C5.39643 32.3518 6.27663 33.8424 8.15439 34.3455C10.2292 34.9014 11.577 33.8588 12.018 32.2128ZM7.07937 30.9392C7.22845 30.3828 7.79914 30.2003 8.64922 30.366L8.14297 32.2553C7.31235 31.9707 6.93961 31.4608 7.07937 30.9392Z" fill="white"/>
<path d="M14.987 25.2359C15.701 23.9992 15.6606 22.7011 14.6483 21.7425L13.6763 23.4261C14.0484 23.7656 14.1598 24.1486 13.9018 24.5955C13.6198 25.0839 13.0684 25.2229 12.0747 24.76L14.0607 21.3202L13.7178 21.1222C12.055 20.1622 10.403 20.4555 9.45504 22.0974C8.55504 23.6563 9.01944 25.3239 10.703 26.2959C12.5632 27.3699 14.135 26.7116 14.987 25.2359ZM10.5462 22.7274C10.8342 22.2286 11.4327 22.2 12.211 22.5801L11.233 24.274C10.5043 23.784 10.2762 23.1951 10.5462 22.7274Z" fill="white"/>
<path d="M23.8948 12.1031L26.1242 12.7005L26.4712 11.4055L24.2418 10.8081L24.8392 8.57877L23.5442 8.23178L22.9468 10.4611L20.7175 9.86378L20.3705 11.1588L22.5998 11.7561L22.0025 13.9855L23.2975 14.3325L23.8948 12.1031Z" fill="#FFBC0D"/>
</svg>
