<svg width="12" height="13" viewBox="0 0 12 13" fill="none" xmlns="http://www.w3.org/2000/svg">
<path d="M1.33995 13H0.757559C0.672618 12.9999 0.588695 12.9819 0.511494 12.9473C0.434292 12.9127 0.365621 12.8623 0.310147 12.7995C0.254672 12.7366 0.213695 12.6629 0.189999 12.5832C0.166303 12.5035 0.160443 12.4198 0.172819 12.3377C0.556897 9.90534 3.02362 8.02344 5.99984 8.02344C8.97605 8.02344 11.4428 9.90534 11.8269 12.3377C11.8392 12.4198 11.8334 12.5035 11.8097 12.5832C11.786 12.6629 11.745 12.7366 11.6895 12.7995C11.6341 12.8623 11.5654 12.9127 11.4882 12.9473C11.411 12.9819 11.3271 12.9999 11.2421 13H1.33995ZM5.99984 6.10938C4.26757 6.10938 3.64834 4.90964 3.64834 3.42969C3.64834 1.94973 4.26757 0.75 5.99984 0.75C7.73133 0.75 8.35134 1.94973 8.35134 3.42969C8.35134 4.90964 7.73133 6.10938 5.99984 6.10938Z" fill="#FFBC0D"/>
</svg>
